<svg width="20" height="20" viewBox="0 0 20 20" fill="none" xmlns="http://www.w3.org/2000/svg">
<g id="Icons">
<path id="Vector" fill-rule="evenodd" clip-rule="evenodd" d="M11.6889 3.74837C12.0221 3.83843 12.2192 4.18156 12.1291 4.51479L9.07598 15.8115C8.9859 16.1448 8.64282 16.3419 8.30956 16.2519C7.97633 16.1618 7.77922 15.8186 7.86927 15.4854L10.9225 4.18865C11.0125 3.85543 11.3556 3.6583 11.6889 3.74837ZM13.508 6.13886C13.7416 5.88477 14.137 5.86819 14.3911 6.10182L18.1302 9.53994C18.259 9.65836 18.3322 9.82519 18.3322 10C18.3322 10.1749 18.259 10.3418 18.1302 10.4601L14.3911 13.8983C14.137 14.1319 13.7416 14.1153 13.508 13.8612C13.2743 13.6071 13.2909 13.2118 13.545 12.9781L16.7838 10L13.545 7.02197C13.2909 6.78834 13.2743 6.39295 13.508 6.13886ZM6.49012 6.13898C6.72375 6.39307 6.70717 6.78844 6.45307 7.02208L3.21423 10.0001L6.45307 12.9782C6.70717 13.2119 6.72375 13.6072 6.49012 13.8614C6.25648 14.1154 5.8611 14.132 5.60701 13.8984L1.8678 10.4602C1.73908 10.3419 1.66583 10.175 1.66583 10.0001C1.66583 9.82528 1.73909 9.65844 1.86781 9.54003L5.60701 6.10193C5.8611 5.86829 6.25648 5.88488 6.49012 6.13898Z" fill="#989898"/>
</g>
</svg>
