<svg width="48" height="48" viewBox="0 0 48 48" fill="none" xmlns="http://www.w3.org/2000/svg">
<path d="M0.5 16C0.5 7.43959 7.43959 0.5 16 0.5H32C40.5604 0.5 47.5 7.43959 47.5 16V32C47.5 40.5604 40.5604 47.5 32 47.5H16C7.43959 47.5 0.5 40.5604 0.5 32V16Z" stroke="#F0F0F0"/>
<path fill-rule="evenodd" clip-rule="evenodd" d="M14 24C14 22.3086 15.3711 20.9375 17.0625 20.9375C18.7539 20.9375 20.125 22.3086 20.125 24C20.125 25.6914 18.7539 27.0625 17.0625 27.0625C15.3711 27.0625 14 25.6914 14 24ZM17.0625 22.4375C16.1996 22.4375 15.5 23.1371 15.5 24C15.5 24.8629 16.1996 25.5625 17.0625 25.5625C17.9254 25.5625 18.625 24.8629 18.625 24C18.625 23.1371 17.9254 22.4375 17.0625 22.4375ZM20.9375 24C20.9375 22.3086 22.3086 20.9375 24 20.9375C25.6914 20.9375 27.0625 22.3086 27.0625 24C27.0625 25.6914 25.6914 27.0625 24 27.0625C22.3086 27.0625 20.9375 25.6914 20.9375 24ZM24 22.4375C23.1371 22.4375 22.4375 23.1371 22.4375 24C22.4375 24.8629 23.1371 25.5625 24 25.5625C24.8629 25.5625 25.5625 24.8629 25.5625 24C25.5625 23.1371 24.8629 22.4375 24 22.4375ZM27.875 24C27.875 22.3086 29.2461 20.9375 30.9375 20.9375C32.6289 20.9375 34 22.3086 34 24C34 25.6914 32.6289 27.0625 30.9375 27.0625C29.2461 27.0625 27.875 25.6914 27.875 24ZM30.9375 22.4375C30.0746 22.4375 29.375 23.1371 29.375 24C29.375 24.8629 30.0746 25.5625 30.9375 25.5625C31.8004 25.5625 32.5 24.8629 32.5 24C32.5 23.1371 31.8004 22.4375 30.9375 22.4375Z" fill="#111111"/>
</svg>
