<svg width="20" height="20" viewBox="0 0 20 20" fill="none" xmlns="http://www.w3.org/2000/svg">
<path id="Vector" fill-rule="evenodd" clip-rule="evenodd" d="M9.9694 0H10.0306C11.52 0 12.6793 -9.90182e-06 13.6122 0.0688901C14.559 0.13881 15.3317 0.28267 16.0358 0.60167C17.5274 1.27752 18.7225 2.47259 19.3983 3.96423C19.7173 4.66827 19.8612 5.44105 19.9311 6.38781C20 7.32065 20 8.48 20 9.9694V10.0306C20 11.52 20 12.6793 19.9311 13.6122C19.8612 14.559 19.7173 15.3317 19.3983 16.0358C18.7225 17.5274 17.5274 18.7225 16.0358 19.3983C15.3317 19.7173 14.559 19.8612 13.6122 19.9311C12.6793 20 11.52 20 10.0306 20H9.9694C8.48 20 7.32065 20 6.38781 19.9311C5.44105 19.8612 4.66827 19.7173 3.96423 19.3983C2.47259 18.7225 1.27752 17.5274 0.60167 16.0358C0.28267 15.3317 0.13881 14.559 0.0688901 13.6122C-9.90182e-06 12.6793 0 11.52 0 10.0306V9.9694C0 8.48 -9.90182e-06 7.32066 0.0688901 6.38781C0.13881 5.44105 0.28267 4.66827 0.60167 3.96423C1.27752 2.47259 2.47259 1.27752 3.96423 0.60167C4.66827 0.28267 5.44105 0.13881 6.38781 0.0688901C7.32066 -9.90182e-06 8.48 0 9.9694 0ZM6.49829 1.56482C5.63466 1.6286 5.05961 1.75215 4.58329 1.96796C3.42313 2.49363 2.49363 3.42313 1.96796 4.58329C1.75215 5.05961 1.6286 5.63466 1.56482 6.49829C1.50048 7.36945 1.5 8.4736 1.5 10C1.5 11.5264 1.50048 12.6306 1.56482 13.5017C1.6286 14.3653 1.75215 14.9404 1.96796 15.4167C2.49363 16.5769 3.42313 17.5064 4.58329 18.032C5.05961 18.2479 5.63466 18.3714 6.49829 18.4352C7.36945 18.4995 8.4736 18.5 10 18.5C11.5264 18.5 12.6306 18.4995 13.5017 18.4352C14.3653 18.3714 14.9404 18.2479 15.4167 18.032C16.5769 17.5064 17.5064 16.5769 18.032 15.4167C18.2479 14.9404 18.3714 14.3653 18.4352 13.5017C18.4995 12.6306 18.5 11.5264 18.5 10C18.5 8.4736 18.4995 7.36945 18.4352 6.49829C18.3714 5.63466 18.2479 5.05961 18.032 4.58329C17.5064 3.42313 16.5769 2.49363 15.4167 1.96796C14.9404 1.75215 14.3653 1.6286 13.5017 1.56482C12.6306 1.50048 11.5264 1.5 10 1.5C8.4736 1.5 7.36945 1.50048 6.49829 1.56482ZM6.99478 6.99481C7.28767 6.70191 7.76254 6.70191 8.0554 6.99481L10 8.9394L11.9446 6.99481C12.2375 6.70191 12.7123 6.70191 13.0052 6.99481C13.2981 7.2877 13.2981 7.76257 13.0052 8.0555L11.0607 10L13.0052 11.9446C13.2981 12.2374 13.2981 12.7123 13.0052 13.0052C12.7123 13.2981 12.2374 13.2981 11.9445 13.0052L10 11.0607L8.0555 13.0052C7.76258 13.2981 7.28771 13.2981 6.99482 13.0052C6.70192 12.7123 6.70192 12.2374 6.99482 11.9446L8.9393 10L6.99478 8.0555C6.70188 7.76257 6.70188 7.2877 6.99478 6.99481Z" fill="#111111"/>
</svg>
