<svg width="17" height="17" viewBox="0 0 17 17" fill="none" xmlns="http://www.w3.org/2000/svg">
<path fill-rule="evenodd" clip-rule="evenodd" d="M11.5299 3.33777C11.1103 3.30349 10.5741 3.3031 9.81913 3.3031H4.32877C4.05262 3.3031 3.82877 3.07925 3.82877 2.8031C3.82877 2.52696 4.05262 2.3031 4.32877 2.3031H9.84113C10.5692 2.3031 11.1462 2.30309 11.6113 2.34109C12.0869 2.37995 12.4893 2.46102 12.8567 2.64825C13.4526 2.95185 13.9371 3.43629 14.2407 4.03213C14.4279 4.39958 14.5089 4.802 14.5478 5.27759C14.5858 5.74267 14.5858 6.31967 14.5858 7.04775V13.1897C14.5858 13.4659 14.3619 13.6897 14.0858 13.6897C13.8097 13.6897 13.5858 13.4659 13.5858 13.1897V7.06977C13.5858 6.31478 13.5854 5.77861 13.5511 5.35902C13.5173 4.94527 13.4531 4.68911 13.3497 4.48612C13.1419 4.07844 12.8105 3.74698 12.4028 3.53925C12.1998 3.43583 11.9436 3.37158 11.5299 3.33777ZM4.49508 4.90913H9.40667C9.7628 4.90912 10.06 4.90911 10.3028 4.92895C10.5561 4.94965 10.7939 4.99439 11.0187 5.10895C11.3637 5.28471 11.6441 5.56518 11.8199 5.91015C11.9345 6.13499 11.9792 6.37276 11.9999 6.62601C12.0197 6.86883 12.0197 7.16606 12.0197 7.52214V13.0234C12.0197 13.3795 12.0197 13.6767 11.9999 13.9195C11.9792 14.1728 11.9345 14.4106 11.8199 14.6354C11.6441 14.9804 11.3637 15.2609 11.0187 15.4366C10.7939 15.5512 10.5561 15.5959 10.3028 15.6166C10.06 15.6365 9.7628 15.6365 9.40667 15.6364H4.49507C4.13897 15.6365 3.84174 15.6365 3.59892 15.6166C3.34566 15.5959 3.10789 15.5512 2.88305 15.4366C2.53809 15.2609 2.25762 14.9804 2.08185 14.6354C1.96729 14.4106 1.92255 14.1728 1.90186 13.9195C1.88202 13.6767 1.88203 13.3795 1.88203 13.0234V7.52214C1.88203 7.16607 1.88202 6.86883 1.90186 6.62601C1.92255 6.37276 1.96729 6.13499 2.08185 5.91015C2.25762 5.56518 2.53809 5.28471 2.88305 5.10895C3.10789 4.99439 3.34566 4.94965 3.59892 4.92895C3.84174 4.90911 4.13897 4.90912 4.49508 4.90913ZM3.68035 5.92563C3.48893 5.94127 3.39741 5.96919 3.33704 5.99995C3.18024 6.07985 3.05275 6.20733 2.97286 6.36413C2.9421 6.42451 2.91417 6.51603 2.89854 6.70745C2.88242 6.9047 2.88203 7.16084 2.88203 7.54247V13.0031C2.88203 13.3847 2.88242 13.6409 2.89854 13.8381C2.91417 14.0295 2.9421 14.1211 2.97286 14.1814C3.05275 14.3382 3.18024 14.4657 3.33704 14.5456C3.39741 14.5763 3.48893 14.6043 3.68035 14.6199C3.87761 14.6361 4.13375 14.6364 4.51537 14.6364H9.3864C9.768 14.6364 10.0241 14.6361 10.2214 14.6199C10.4128 14.6043 10.5043 14.5763 10.5647 14.5456C10.7215 14.4657 10.849 14.3382 10.9289 14.1814C10.9597 14.1211 10.9876 14.0295 11.0032 13.8381C11.0193 13.6409 11.0197 13.3847 11.0197 13.0031V7.54247C11.0197 7.16084 11.0193 6.9047 11.0032 6.70745C10.9876 6.51603 10.9597 6.42451 10.9289 6.36413C10.849 6.20733 10.7215 6.07985 10.5647 5.99995C10.5043 5.96919 10.4128 5.94127 10.2214 5.92563C10.0241 5.90951 9.768 5.90913 9.3864 5.90913H4.51537C4.13375 5.90913 3.8776 5.90951 3.68035 5.92563Z" fill="#111111"/>
</svg>
