<svg width="20" height="20" viewBox="0 0 20 20" fill="none" xmlns="http://www.w3.org/2000/svg">
<path fill-rule="evenodd" clip-rule="evenodd" d="M9.97452 1.66675H10.0255C11.2667 1.66675 12.2328 1.66674 13.0102 1.72416C13.7991 1.78242 14.4431 1.90231 15.0299 2.16814C16.2729 2.73135 17.2688 3.72724 17.8319 4.97027C18.0978 5.55698 18.2177 6.20096 18.2759 6.98992C18.3334 7.76729 18.3334 8.73342 18.3334 9.97458V10.0256C18.3334 11.2667 18.3334 12.2328 18.2759 13.0102C18.2177 13.7992 18.0978 14.4432 17.8319 15.0299C17.2688 16.2729 16.2729 17.2688 15.0299 17.832C14.4431 18.0978 13.7991 18.2177 13.0102 18.276C12.2328 18.3334 11.2667 18.3334 10.0255 18.3334H9.97452C8.73335 18.3334 7.76723 18.3334 6.98986 18.276C6.2009 18.2177 5.55691 18.0978 4.97021 17.832C3.72718 17.2688 2.73129 16.2729 2.16808 15.0299C1.90225 14.4432 1.78236 13.7992 1.7241 13.0102C1.66668 12.2328 1.66669 11.2667 1.66669 10.0256V9.97458C1.66669 8.73342 1.66668 7.7673 1.7241 6.98992C1.78236 6.20096 1.90225 5.55697 2.16808 4.97027C2.73129 3.72724 3.72718 2.73135 4.97021 2.16814C5.55692 1.90231 6.2009 1.78242 6.98986 1.72416C7.76724 1.66674 8.73335 1.66675 9.97452 1.66675ZM7.08193 2.97076C6.36224 3.02391 5.88303 3.12687 5.4861 3.30671C4.5193 3.74477 3.74471 4.51936 3.30666 5.48616C3.14462 5.84377 3.045 6.26819 2.98799 6.87508H9.37502V2.91705C8.41769 2.91846 7.68322 2.92635 7.08193 2.97076ZM10.625 2.91705V6.87508H17.012C16.955 6.26819 16.8554 5.84378 16.6934 5.48616C16.2554 4.51936 15.4808 3.74477 14.5139 3.30672C14.117 3.12687 13.6378 3.02391 12.9181 2.97076C12.3169 2.92636 11.5824 2.91846 10.625 2.91705ZM17.0729 8.12508H10.625V11.8751H17.0729C17.0832 11.3464 17.0834 10.7314 17.0834 10.0001C17.0834 9.26875 17.0832 8.65375 17.0729 8.12508ZM17.012 13.1251H10.625V17.0831C11.5824 17.0817 12.3169 17.0738 12.9181 17.0294C13.6378 16.9762 14.117 16.8733 14.5139 16.6934C15.4808 16.2554 16.2554 15.4808 16.6934 14.514C16.8554 14.1564 16.955 13.732 17.012 13.1251ZM9.37502 17.0831V13.1251H2.98799C3.045 13.732 3.14462 14.1564 3.30665 14.514C3.74471 15.4808 4.5193 16.2554 5.4861 16.6934C5.88303 16.8733 6.36224 16.9762 7.08193 17.0294C7.68322 17.0738 8.41769 17.0817 9.37502 17.0831ZM2.92712 11.8751H9.37502V8.12508H2.92712C2.91682 8.65375 2.91669 9.26875 2.91669 10.0001C2.91669 10.7314 2.91682 11.3464 2.92712 11.8751Z" fill="#111111"/>
</svg>
