<svg width="17" height="17" viewBox="0 0 17 17" fill="none" xmlns="http://www.w3.org/2000/svg">
<g id="Icons">
<path id="Vector" fill-rule="evenodd" clip-rule="evenodd" d="M8.66666 3.20369C8.94279 3.20369 9.16666 3.42755 9.16666 3.70369V9.41173L11.0679 7.65266C11.2705 7.46513 11.5869 7.4774 11.7744 7.68013C11.962 7.8828 11.9497 8.19913 11.747 8.38666L9.00626 10.9225C8.81459 11.0999 8.51872 11.0999 8.32712 10.9225L5.58636 8.38666C5.38367 8.19913 5.37139 7.8828 5.55893 7.68013C5.74647 7.4774 6.06282 7.46513 6.2655 7.65266L8.16666 9.41173V3.70369C8.16666 3.42755 8.39052 3.20369 8.66666 3.20369ZM2.49999 6.62962C2.77613 6.62962 2.99999 6.85348 2.99999 7.12962C2.99999 10.2593 5.53704 12.7963 8.66666 12.7963C11.7963 12.7963 14.3333 10.2593 14.3333 7.12962C14.3333 6.85348 14.5572 6.62962 14.8333 6.62962C15.1095 6.62962 15.3333 6.85348 15.3333 7.12962C15.3333 10.8115 12.3485 13.7963 8.66666 13.7963C4.98476 13.7963 1.99999 10.8115 1.99999 7.12962C1.99999 6.85348 2.22385 6.62962 2.49999 6.62962Z" fill="#989898"/>
</g>
</svg>
