<svg width="24" height="24" viewBox="0 0 24 24" fill="none" xmlns="http://www.w3.org/2000/svg">
<g id="Icons">
<path id="Vector" fill-rule="evenodd" clip-rule="evenodd" d="M12 4.05542C12.4142 4.05542 12.75 4.39121 12.75 4.80542V13.3675L15.6018 10.7289C15.9058 10.4476 16.3803 10.466 16.6616 10.7701C16.943 11.0741 16.9245 11.5486 16.6205 11.8299L12.5094 15.6337C12.2219 15.8997 11.7781 15.8997 11.4907 15.6337L7.37956 11.8299C7.07552 11.5486 7.0571 11.0741 7.33841 10.7701C7.61972 10.466 8.09424 10.4476 8.39827 10.7289L11.25 13.3675V4.80542C11.25 4.39121 11.5858 4.05542 12 4.05542ZM2.75 9.19431C3.16421 9.19431 3.5 9.5301 3.5 9.94431C3.5 14.6388 7.30558 18.4443 12 18.4443C16.6944 18.4443 20.5 14.6388 20.5 9.94431C20.5 9.5301 20.8358 9.19431 21.25 9.19431C21.6642 9.19431 22 9.5301 22 9.94431C22 15.4672 17.5228 19.9443 12 19.9443C6.47715 19.9443 2 15.4672 2 9.94431C2 9.5301 2.33579 9.19431 2.75 9.19431Z" fill="#111111"/>
</g>
</svg>
