<svg width="17" height="17" viewBox="0 0 17 17" fill="none" xmlns="http://www.w3.org/2000/svg">
<path fill-rule="evenodd" clip-rule="evenodd" d="M8.55619 1.83333H8.77726C9.50539 1.83332 10.0824 1.83332 10.5475 1.87132C11.0231 1.91018 11.4255 1.99125 11.7929 2.17848C12.3887 2.48208 12.8732 2.96652 13.1768 3.56236C13.364 3.92981 13.4451 4.33223 13.4839 4.80782C13.5219 5.2729 13.5219 5.8499 13.5219 6.57798V10.422C13.5219 11.1501 13.5219 11.7271 13.4839 12.1922C13.4451 12.6678 13.364 13.0702 13.1768 13.4377C12.8732 14.0335 12.3887 14.5179 11.7929 14.8215C11.4255 15.0087 11.0231 15.0898 10.5475 15.1287C10.0824 15.1667 9.50539 15.1667 8.77726 15.1667H8.55619C7.82806 15.1667 7.25108 15.1667 6.786 15.1287C6.31041 15.0898 5.90799 15.0087 5.54054 14.8215C4.9447 14.5179 4.46026 14.0335 4.15666 13.4377C3.96944 13.0702 3.88836 12.6678 3.8495 12.1922C3.8115 11.7271 3.81151 11.1501 3.81152 10.422V6.578C3.81151 5.8499 3.81151 5.2729 3.8495 4.80782C3.88836 4.33222 3.96944 3.92981 4.15666 3.56236C4.46026 2.96652 4.9447 2.48208 5.54054 2.17848C5.908 1.99125 6.31041 1.91018 6.786 1.87132C7.25108 1.83332 7.82806 1.83332 8.55619 1.83333ZM6.86744 2.868C6.45368 2.9018 6.19752 2.96606 5.99454 3.06948C5.58685 3.27721 5.25539 3.60866 5.04766 4.01635C4.94424 4.21933 4.87999 4.4755 4.84618 4.88925C4.8119 5.30884 4.81152 5.84501 4.81152 6.6V10.4C4.81152 11.155 4.8119 11.6911 4.84618 12.1107C4.87999 12.5245 4.94424 12.7807 5.04766 12.9837C5.25539 13.3913 5.58685 13.7228 5.99454 13.9305C6.19752 14.0339 6.45368 14.0982 6.86744 14.132C7.28702 14.1663 7.82319 14.1667 8.57819 14.1667H8.75526C9.51026 14.1667 10.0464 14.1663 10.466 14.132C10.8798 14.0982 11.1359 14.0339 11.3389 13.9305C11.7466 13.7228 12.0781 13.3913 12.2858 12.9837C12.3892 12.7807 12.4535 12.5245 12.4873 12.1107C12.5215 11.6911 12.5219 11.155 12.5219 10.4V6.6C12.5219 5.84501 12.5215 5.30884 12.4873 4.88925C12.4535 4.4755 12.3892 4.21933 12.2858 4.01635C12.0781 3.60866 11.7466 3.27721 11.3389 3.06948C11.1359 2.96606 10.8798 2.9018 10.466 2.868C10.0464 2.83372 9.51026 2.83333 8.75526 2.83333H8.57819C7.82319 2.83333 7.28702 2.83372 6.86744 2.868ZM7.24172 4.02916C7.24172 3.75302 7.46559 3.52916 7.74172 3.52916H9.59172C9.86786 3.52916 10.0917 3.75302 10.0917 4.02916C10.0917 4.3053 9.86786 4.52916 9.59172 4.52916H7.74172C7.46559 4.52916 7.24172 4.3053 7.24172 4.02916ZM8.66672 12.3937C8.94286 12.3937 9.16672 12.6176 9.16672 12.8937V12.913C9.16672 13.1891 8.94286 13.413 8.66672 13.413C8.39059 13.413 8.16672 13.1891 8.16672 12.913V12.8937C8.16672 12.6176 8.39059 12.3937 8.66672 12.3937Z" fill="#989898"/>
</svg>
