<svg width="24" height="24" viewBox="0 0 24 24" fill="none" xmlns="http://www.w3.org/2000/svg">
<path fill-rule="evenodd" clip-rule="evenodd" d="M11.8343 2H12.1659C13.2581 1.99999 14.1236 1.99999 14.8212 2.05699C15.5346 2.11527 16.1382 2.23688 16.6894 2.51772C17.5831 2.97312 18.3098 3.69978 18.7652 4.59355C19.046 5.14472 19.1676 5.74835 19.2259 6.46173C19.2829 7.15935 19.2829 8.02485 19.2829 9.11698V14.883C19.2829 15.9752 19.2829 16.8406 19.2259 17.5383C19.1676 18.2517 19.046 18.8553 18.7652 19.4065C18.3098 20.3002 17.5831 21.0269 16.6894 21.4823C16.1382 21.7631 15.5346 21.8847 14.8212 21.943C14.1236 22 13.2581 22 12.1659 22H11.8343C10.7421 22 9.87664 22 9.17902 21.943C8.46563 21.8847 7.862 21.7631 7.31083 21.4823C6.41706 21.0269 5.6904 20.3002 5.235 19.4065C4.95417 18.8553 4.83256 18.2517 4.77427 17.5383C4.71727 16.8406 4.71728 15.9751 4.71729 14.883V9.117C4.71728 8.02486 4.71728 7.15936 4.77427 6.46173C4.83256 5.74834 4.95417 5.14472 5.235 4.59354C5.6904 3.69978 6.41706 2.97312 7.31083 2.51772C7.86201 2.23688 8.46563 2.11527 9.17902 2.05699C9.87664 1.99999 10.7421 1.99999 11.8343 2ZM9.30117 3.55201C8.68054 3.60271 8.29629 3.69909 7.99182 3.85423C7.38029 4.16582 6.8831 4.663 6.57151 5.27453C6.41638 5.579 6.32 5.96325 6.26929 6.58388C6.21787 7.21327 6.21729 8.01752 6.21729 9.15V14.85C6.21729 15.9825 6.21787 16.7867 6.26929 17.4161C6.32 18.0367 6.41638 18.421 6.57151 18.7255C6.8831 19.337 7.38029 19.8342 7.99182 20.1458C8.29629 20.3009 8.68054 20.3973 9.30117 20.448C9.93055 20.4994 10.7348 20.5 11.8673 20.5H12.1329C13.2654 20.5 14.0696 20.4994 14.699 20.448C15.3197 20.3973 15.7039 20.3009 16.0084 20.1458C16.6199 19.8342 17.1171 19.337 17.4287 18.7255C17.5838 18.421 17.6802 18.0367 17.7309 17.4161C17.7823 16.7867 17.7829 15.9825 17.7829 14.85V9.15C17.7829 8.01752 17.7823 7.21327 17.7309 6.58388C17.6802 5.96325 17.5838 5.579 17.4287 5.27453C17.1171 4.663 16.6199 4.16582 16.0084 3.85423C15.7039 3.69909 15.3197 3.60271 14.699 3.55201C14.0696 3.50058 13.2654 3.5 12.1329 3.5H11.8673C10.7348 3.5 9.93055 3.50058 9.30117 3.55201ZM9.8626 5.29375C9.8626 4.87954 10.1984 4.54375 10.6126 4.54375H13.3876C13.8018 4.54375 14.1376 4.87954 14.1376 5.29375C14.1376 5.70796 13.8018 6.04375 13.3876 6.04375H10.6126C10.1984 6.04375 9.8626 5.70796 9.8626 5.29375ZM12.0001 17.8406C12.4143 17.8406 12.7501 18.1764 12.7501 18.5906V18.6195C12.7501 19.0337 12.4143 19.3695 12.0001 19.3695C11.5859 19.3695 11.2501 19.0337 11.2501 18.6195V18.5906C11.2501 18.1764 11.5859 17.8406 12.0001 17.8406Z" fill="#111111"/>
</svg>
