<svg width="24" height="24" viewBox="0 0 24 24" fill="none" xmlns="http://www.w3.org/2000/svg">
<path fill-rule="evenodd" clip-rule="evenodd" d="M2 12C2 10.3086 3.37113 8.9375 5.0625 8.9375C6.75387 8.9375 8.125 10.3086 8.125 12C8.125 13.6914 6.75387 15.0625 5.0625 15.0625C3.37113 15.0625 2 13.6914 2 12ZM5.0625 10.4375C4.19956 10.4375 3.5 11.1371 3.5 12C3.5 12.8629 4.19956 13.5625 5.0625 13.5625C5.92544 13.5625 6.625 12.8629 6.625 12C6.625 11.1371 5.92544 10.4375 5.0625 10.4375ZM8.9375 12C8.9375 10.3086 10.3086 8.9375 12 8.9375C13.6914 8.9375 15.0625 10.3086 15.0625 12C15.0625 13.6914 13.6914 15.0625 12 15.0625C10.3086 15.0625 8.9375 13.6914 8.9375 12ZM12 10.4375C11.1371 10.4375 10.4375 11.1371 10.4375 12C10.4375 12.8629 11.1371 13.5625 12 13.5625C12.8629 13.5625 13.5625 12.8629 13.5625 12C13.5625 11.1371 12.8629 10.4375 12 10.4375ZM15.875 12C15.875 10.3086 17.2461 8.9375 18.9375 8.9375C20.6289 8.9375 22 10.3086 22 12C22 13.6914 20.6289 15.0625 18.9375 15.0625C17.2461 15.0625 15.875 13.6914 15.875 12ZM18.9375 10.4375C18.0746 10.4375 17.375 11.1371 17.375 12C17.375 12.8629 18.0746 13.5625 18.9375 13.5625C19.8004 13.5625 20.5 12.8629 20.5 12C20.5 11.1371 19.8004 10.4375 18.9375 10.4375Z" fill="#111111"/>
</svg>
