<svg width="24" height="24" viewBox="0 0 24 24" fill="none" xmlns="http://www.w3.org/2000/svg">
<path fill-rule="evenodd" clip-rule="evenodd" d="M11.9694 2H12.0306C13.52 2 14.6793 1.99999 15.6122 2.06889C16.5589 2.13881 17.3317 2.28267 18.0358 2.60167C19.5274 3.27752 20.7225 4.47259 21.3983 5.96423C21.7173 6.66828 21.8612 7.44105 21.9311 8.38781C22 9.32065 22 10.48 22 11.9694V12.0306C22 13.52 22 14.6793 21.9311 15.6122C21.8612 16.5589 21.7173 17.3317 21.3983 18.0358C20.7225 19.5274 19.5274 20.7225 18.0358 21.3983C17.3317 21.7173 16.5589 21.8612 15.6122 21.9311C14.6793 22 13.52 22 12.0306 22H11.9694C10.48 22 9.32065 22 8.38781 21.9311C7.44105 21.8612 6.66827 21.7173 5.96423 21.3983C4.47259 20.7225 3.27752 19.5274 2.60167 18.0358C2.28267 17.3317 2.13881 16.5589 2.06889 15.6122C1.99999 14.6793 2 13.52 2 12.0306V11.9694C2 10.48 1.99999 9.32066 2.06889 8.38781C2.13881 7.44105 2.28267 6.66827 2.60167 5.96423C3.27752 4.47259 4.47259 3.27752 5.96423 2.60167C6.66828 2.28267 7.44105 2.13881 8.38781 2.06889C9.32066 1.99999 10.48 2 11.9694 2ZM8.49829 3.56481C7.63466 3.6286 7.05961 3.75215 6.58329 3.96796C5.42313 4.49363 4.49363 5.42313 3.96797 6.58329C3.75215 7.05961 3.6286 7.63466 3.56482 8.49829C3.50048 9.36945 3.5 10.4736 3.5 12C3.5 13.5264 3.50048 14.6305 3.56481 15.5017C3.6286 16.3653 3.75215 16.9404 3.96796 17.4167C4.49363 18.5769 5.42313 19.5064 6.58329 20.032C7.05961 20.2479 7.63466 20.3714 8.49829 20.4352C9.36945 20.4995 10.4736 20.5 12 20.5C13.5264 20.5 14.6305 20.4995 15.5017 20.4352C16.3653 20.3714 16.9404 20.2479 17.4167 20.032C18.5769 19.5064 19.5064 18.5769 20.032 17.4167C20.2479 16.9404 20.3714 16.3653 20.4352 15.5017C20.4995 14.6305 20.5 13.5264 20.5 12C20.5 10.4736 20.4995 9.36945 20.4352 8.49829C20.3714 7.63466 20.2479 7.05961 20.032 6.58329C19.5064 5.42313 18.5769 4.49363 17.4167 3.96797C16.9404 3.75215 16.3653 3.6286 15.5017 3.56482C14.6305 3.50048 13.5264 3.5 12 3.5C10.4736 3.5 9.36945 3.50048 8.49829 3.56481ZM16.245 7.75506C15.9049 7.41498 15.3536 7.41498 15.0135 7.75506L14.7843 7.98428C14.6436 8.12493 14.4529 8.20395 14.2539 8.20395C14.055 8.20395 13.8643 8.12493 13.7236 7.98428L13.4944 7.75506C13.1543 7.41498 12.603 7.41498 12.2629 7.75506C11.9228 8.09514 11.9228 8.6465 12.2629 8.98659L14.254 10.9777L16.245 8.98659C16.5851 8.64651 16.5851 8.09515 16.245 7.75506ZM14.2539 6.43923C15.1799 5.77823 16.4746 5.86328 17.3057 6.6944C18.2316 7.62028 18.2315 9.12139 17.3057 10.0473L14.7843 12.5687C14.6436 12.7093 14.4529 12.7883 14.254 12.7883C14.055 12.7883 13.8643 12.7093 13.7236 12.5687L11.2022 10.0473C10.2763 9.12137 10.2764 7.62026 11.2022 6.6944C12.0333 5.8633 13.328 5.77822 14.2539 6.43923Z" fill="#111111"/>
</svg>
