<svg width="24" height="24" viewBox="0 0 24 24" fill="none" xmlns="http://www.w3.org/2000/svg">
<path fill-rule="evenodd" clip-rule="evenodd" d="M12 5.13556C12.2783 5.13556 12.5336 5.28957 12.6634 5.53564L15.7854 11.4543L20.8173 7.89896C21.0789 7.71407 21.4291 7.71582 21.6889 7.90331C21.9488 8.09081 22.0608 8.42264 21.9677 8.72923L18.6543 19.6501C18.5584 19.9662 18.267 20.1823 17.9366 20.1823H6.06348C5.73314 20.1823 5.4417 19.9662 5.34579 19.6501L2.03235 8.72923C1.93933 8.42264 2.05134 8.09081 2.31115 7.90331C2.57096 7.71582 2.92118 7.71407 3.18284 7.89896L8.21469 11.4543L11.3367 5.53564C11.4665 5.28957 11.7218 5.13556 12 5.13556ZM12 7.49309L9.1429 12.9097C9.0422 13.1006 8.86415 13.2389 8.65426 13.2891C8.44437 13.3394 8.223 13.2969 8.04673 13.1723L4.10233 10.3853L6.61969 18.6823H17.3804L19.8978 10.3853L15.9534 13.1723C15.7771 13.2969 15.5557 13.3394 15.3458 13.2891C15.1359 13.2389 14.9579 13.1006 14.8572 12.9097L12 7.49309Z" fill="#111111"/>
</svg>
