<svg width="24" height="24" viewBox="0 0 24 24" fill="none" xmlns="http://www.w3.org/2000/svg">
<path fill-rule="evenodd" clip-rule="evenodd" d="M19.8892 4.1106C20.1821 4.40349 20.1821 4.87837 19.8892 5.17126L17.2208 7.83964C17.7917 8.21497 18.3121 8.63618 18.7816 9.07992C20.4159 10.6245 21.4707 12.4733 21.9506 13.733C22.0981 14.1201 21.9038 14.5534 21.5168 14.7009C21.1297 14.8483 20.6964 14.6541 20.5489 14.267C20.1399 13.1933 19.2031 11.5422 17.7513 10.1701C17.2657 9.71118 16.7268 9.2871 16.1341 8.92637L14.1401 10.9204C15.113 11.5979 15.7498 12.7246 15.7498 14C15.7498 16.0711 14.0708 17.75 11.9998 17.75C10.7243 17.75 9.59757 17.1133 8.92011 16.1403L5.17104 19.8894C4.87814 20.1823 4.40327 20.1823 4.11038 19.8894C3.81748 19.5965 3.81748 19.1216 4.11038 18.8287L8.30338 14.6357C8.2681 14.4291 8.24972 14.2167 8.24972 14C8.24972 11.9289 9.92865 10.25 11.9998 10.25C12.2165 10.25 12.4289 10.2684 12.6355 10.3037L14.7067 8.23244C13.8848 7.92809 12.9827 7.75 11.9998 7.75C9.60588 7.75 7.69125 8.80627 6.24821 10.1701C4.79637 11.5422 3.85959 13.1933 3.45058 14.267C3.30313 14.6541 2.8698 14.8483 2.48272 14.7009C2.09564 14.5534 1.90139 14.1201 2.04885 13.733C2.52873 12.4733 3.58362 10.6245 5.2179 9.07992C6.86097 7.52706 9.12689 6.25 11.9998 6.25C13.4375 6.25 14.7233 6.56987 15.8551 7.0841L18.8286 4.1106C19.1215 3.81771 19.5963 3.81771 19.8892 4.1106ZM10.0332 12.906C10.2371 12.5403 10.54 12.2373 10.9058 12.0334L10.0332 12.906ZM10.0097 15.0508C10.3871 15.764 11.1367 16.25 11.9998 16.25C13.2424 16.25 14.2498 15.2426 14.2498 14C14.2498 13.1369 13.7638 12.3873 13.0505 12.0099L10.0097 15.0508Z" fill="#111111"/>
</svg>
