<svg width="24" height="24" viewBox="0 0 24 24" fill="none" xmlns="http://www.w3.org/2000/svg">
<path fill-rule="evenodd" clip-rule="evenodd" d="M12 4.05554C12.4142 4.05554 12.75 4.39133 12.75 4.80554V13.3676L15.6018 10.729C15.9058 10.4477 16.3803 10.4661 16.6616 10.7702C16.943 11.0742 16.9245 11.5487 16.6205 11.83L12.5094 15.6338C12.2219 15.8998 11.7781 15.8998 11.4907 15.6338L7.37956 11.83C7.07552 11.5487 7.0571 11.0742 7.33841 10.7702C7.61972 10.4661 8.09424 10.4477 8.39827 10.729L11.25 13.3676V4.80554C11.25 4.39133 11.5858 4.05554 12 4.05554ZM2.75 9.19443C3.16421 9.19443 3.5 9.53022 3.5 9.94443C3.5 14.6389 7.30558 18.4444 12 18.4444C16.6944 18.4444 20.5 14.6389 20.5 9.94443C20.5 9.53022 20.8358 9.19443 21.25 9.19443C21.6642 9.19443 22 9.53022 22 9.94443C22 15.4673 17.5228 19.9444 12 19.9444C6.47715 19.9444 2 15.4673 2 9.94443C2 9.53022 2.33579 9.19443 2.75 9.19443Z" fill="#111111"/>
</svg>
