<svg width="24" height="24" viewBox="0 0 24 24" fill="none" xmlns="http://www.w3.org/2000/svg">
<path fill-rule="evenodd" clip-rule="evenodd" d="M11.9694 2H12.0306C13.52 2 14.6793 1.99999 15.6122 2.06889C16.5589 2.13881 17.3317 2.28267 18.0358 2.60167C19.5274 3.27752 20.7225 4.47259 21.3983 5.96423C21.7173 6.66828 21.8612 7.44105 21.9311 8.38781C22 9.32065 22 10.48 22 11.9694V12.0306C22 13.52 22 14.6793 21.9311 15.6122C21.8612 16.5589 21.7173 17.3317 21.3983 18.0358C20.7225 19.5274 19.5274 20.7225 18.0358 21.3983C17.3317 21.7173 16.5589 21.8612 15.6122 21.9311C14.6793 22 13.52 22 12.0306 22H11.9694C10.48 22 9.32065 22 8.38781 21.9311C7.44105 21.8612 6.66827 21.7173 5.96423 21.3983C4.47259 20.7225 3.27752 19.5274 2.60167 18.0358C2.28267 17.3317 2.13881 16.5589 2.06889 15.6122C1.99999 14.6793 2 13.52 2 12.0306V11.9694C2 10.48 1.99999 9.32066 2.06889 8.38781C2.13881 7.44105 2.28267 6.66827 2.60167 5.96423C3.27752 4.47259 4.47259 3.27752 5.96423 2.60167C6.66828 2.28267 7.44105 2.13881 8.38781 2.06889C9.32066 1.99999 10.48 2 11.9694 2ZM8.25 3.58556C7.52173 3.65397 7.01244 3.77352 6.58329 3.96796C5.42313 4.49363 4.49363 5.42313 3.96797 6.58329C3.75215 7.05961 3.6286 7.63466 3.56482 8.49829C3.50048 9.36945 3.5 10.4736 3.5 12C3.5 13.5264 3.50048 14.6305 3.56481 15.5017C3.6286 16.3653 3.75215 16.9404 3.96796 17.4167C4.49363 18.5769 5.42313 19.5064 6.58329 20.032C7.01243 20.2265 7.52172 20.346 8.25 20.4144V3.58556ZM9.75 3.51252V11.375H14.25V3.51252C13.6156 3.50016 12.8776 3.5 12 3.5C11.1224 3.5 10.3844 3.50016 9.75 3.51252ZM15.75 3.58556V20.4144C16.4783 20.346 16.9876 20.2265 17.4167 20.032C18.5769 19.5064 19.5064 18.5769 20.032 17.4167C20.2479 16.9404 20.3714 16.3653 20.4352 15.5017C20.4995 14.6305 20.5 13.5264 20.5 12C20.5 10.4736 20.4995 9.36945 20.4352 8.49829C20.3714 7.63466 20.2479 7.05961 20.032 6.58329C19.5064 5.42313 18.5769 4.49363 17.4167 3.96797C16.9876 3.77352 16.4783 3.65397 15.75 3.58556ZM14.25 20.4875V12.875H9.75V20.4875C10.3844 20.4998 11.1224 20.5 12 20.5C12.8776 20.5 13.6156 20.4998 14.25 20.4875Z" fill="#111111"/>
</svg>
