<svg width="24" height="24" viewBox="0 0 24 24" fill="none" xmlns="http://www.w3.org/2000/svg">
<path fill-rule="evenodd" clip-rule="evenodd" d="M12.5713 3.5C10.5625 3.5 8.93406 5.12845 8.93406 7.13724C8.93406 9.14603 10.5625 10.7745 12.5713 10.7745C14.5801 10.7745 16.2085 9.14603 16.2085 7.13724C16.2085 5.12845 14.5801 3.5 12.5713 3.5ZM7.43406 7.13724C7.43406 4.30002 9.73408 2 12.5713 2C15.4085 2 17.7085 4.30002 17.7085 7.13724C17.7085 9.97446 15.4085 12.2745 12.5713 12.2745C9.73408 12.2745 7.43406 9.97446 7.43406 7.13724ZM9.7537 14.0461H15.3902C16.4823 14.0461 17.3478 14.0461 18.0454 14.1031C18.7588 14.1614 19.3624 14.283 19.9136 14.5638C20.8074 15.0192 21.534 15.7459 21.9894 16.6397C22.2709 17.192 22.3921 17.8012 22.4502 18.5221C22.5072 19.2283 22.5072 20.1069 22.5072 21.2172V21.25C22.5072 21.6642 22.1714 22 21.7572 22C21.3429 22 21.0072 21.6642 21.0072 21.25C21.0072 20.0996 21.0066 19.2815 20.9551 18.6426C20.9042 18.0116 20.8075 17.6239 20.6529 17.3206C20.3413 16.7091 19.8442 16.2119 19.2326 15.9003C18.9282 15.7452 18.5439 15.6488 17.9233 15.5981C17.2939 15.5467 16.4896 15.5461 15.3572 15.5461H9.78672C8.65424 15.5461 7.84998 15.5467 7.2206 15.5981C6.59997 15.6488 6.21572 15.7452 5.91125 15.9003C5.29972 16.2119 4.80254 16.7091 4.49095 17.3206C4.33643 17.6239 4.23966 18.0116 4.18879 18.6426C4.13729 19.2815 4.13672 20.0996 4.13672 21.25C4.13672 21.6642 3.80093 22 3.38672 22C2.97251 22 2.63672 21.6642 2.63672 21.25V21.2172C2.63671 20.1069 2.63671 19.2283 2.69364 18.5221C2.75176 17.8012 2.87298 17.192 3.15444 16.6397C3.60984 15.7459 4.33649 15.0192 5.23026 14.5638C5.78144 14.283 6.38506 14.1614 7.09845 14.1031C7.79607 14.0461 8.66156 14.0461 9.7537 14.0461Z" fill="#111111"/>
</svg>
