<svg width="24" height="24" viewBox="0 0 24 24" fill="none" xmlns="http://www.w3.org/2000/svg">
<path fill-rule="evenodd" clip-rule="evenodd" d="M16.0948 3.96485C15.4654 3.91343 14.6612 3.91284 13.5287 3.91284H5.29315C4.87893 3.91284 4.54315 3.57706 4.54315 3.16284C4.54315 2.74863 4.87893 2.41284 5.29315 2.41284H13.5617C14.6538 2.41284 15.5193 2.41283 16.217 2.46983C16.9303 2.52812 17.534 2.64972 18.0851 2.93056C18.9789 3.38596 19.7056 4.11262 20.161 5.00639C20.4418 5.55756 20.5634 6.16119 20.6217 6.87458C20.6787 7.57219 20.6787 8.43769 20.6787 9.52982V18.7428C20.6787 19.157 20.3429 19.4928 19.9287 19.4928C19.5145 19.4928 19.1787 19.157 19.1787 18.7428V9.56284C19.1787 8.43036 19.1781 7.62611 19.1267 6.99672C19.076 6.3761 18.9796 5.99185 18.8245 5.68737C18.5129 5.07585 18.0157 4.57866 17.4042 4.26707C17.0997 4.11193 16.7154 4.01556 16.0948 3.96485ZM5.54262 6.32188H12.91C13.4442 6.32187 13.89 6.32186 14.2542 6.35162C14.6341 6.38266 14.9908 6.44977 15.328 6.62161C15.8455 6.88526 16.2662 7.30596 16.5298 7.82341C16.7017 8.16067 16.7688 8.51733 16.7998 8.89721C16.8296 9.26144 16.8296 9.70728 16.8296 10.2414V18.4933C16.8296 19.0274 16.8296 19.4733 16.7998 19.8375C16.7688 20.2174 16.7017 20.5741 16.5298 20.9113C16.2662 21.4288 15.8455 21.8495 15.328 22.1131C14.9908 22.285 14.6341 22.3521 14.2542 22.3831C13.89 22.4129 13.4442 22.4129 12.91 22.4128H5.5426C5.00845 22.4129 4.56261 22.4129 4.19838 22.3831C3.81849 22.3521 3.46184 22.285 3.12457 22.1131C2.60713 21.8495 2.18643 21.4288 1.92278 20.9113C1.75094 20.5741 1.68382 20.2174 1.65279 19.8375C1.62303 19.4733 1.62304 19.0274 1.62305 18.4933V10.2414C1.62304 9.70729 1.62303 9.26144 1.65279 8.89721C1.68382 8.51733 1.75094 8.16067 1.92278 7.82341C2.18643 7.30596 2.60713 6.88526 3.12457 6.62161C3.46184 6.44977 3.81849 6.38266 4.19838 6.35162C4.56261 6.32186 5.00846 6.32187 5.54262 6.32188ZM4.32053 7.84664C4.0334 7.8701 3.89612 7.91198 3.80556 7.95812C3.57036 8.07796 3.37913 8.26919 3.25929 8.50439C3.21315 8.59495 3.17126 8.73224 3.14781 9.01936C3.12363 9.31524 3.12305 9.69945 3.12305 10.2719V18.4628C3.12305 19.0353 3.12363 19.4195 3.14781 19.7154C3.17126 20.0025 3.21315 20.1398 3.25929 20.2303C3.37913 20.4655 3.57036 20.6568 3.80556 20.7766C3.89612 20.8227 4.0334 20.8646 4.32053 20.8881C4.61641 20.9123 5.00062 20.9128 5.57305 20.9128H12.8796C13.452 20.9128 13.8362 20.9123 14.1321 20.8881C14.4192 20.8646 14.5565 20.8227 14.6471 20.7766C14.8823 20.6568 15.0735 20.4655 15.1933 20.2303C15.2395 20.1398 15.2814 20.0025 15.3048 19.7154C15.329 19.4195 15.3296 19.0353 15.3296 18.4628V10.2719C15.3296 9.69945 15.329 9.31524 15.3048 9.01936C15.2814 8.73224 15.2395 8.59495 15.1933 8.50439C15.0735 8.26919 14.8823 8.07796 14.6471 7.95812C14.5565 7.91198 14.4192 7.8701 14.1321 7.84664C13.8362 7.82246 13.452 7.82188 12.8796 7.82188H5.57305C5.00062 7.82188 4.6164 7.82246 4.32053 7.84664Z" fill="#111111"/>
</svg>
