<svg width="24" height="24" viewBox="0 0 24 24" fill="none" xmlns="http://www.w3.org/2000/svg">
<path fill-rule="evenodd" clip-rule="evenodd" d="M4.93082 3.90076C4.67242 3.88106 4.33938 3.88055 3.83954 3.88055H2.75C2.33579 3.88055 2 3.54477 2 3.13055C2 2.71634 2.33579 2.38055 2.75 2.38055H3.86728C4.33213 2.38054 4.72265 2.38054 5.04485 2.4051C5.38281 2.43087 5.70057 2.48652 6.00918 2.62668C6.48681 2.8436 6.89243 3.1926 7.17819 3.63251C7.36283 3.91675 7.46528 4.22264 7.54118 4.55298C7.61355 4.86791 7.67182 5.25406 7.74117 5.71371L7.92388 6.92441H17.3013C17.9534 6.9244 18.4918 6.92439 18.9243 6.9624C19.3705 7.0016 19.789 7.08643 20.1661 7.31059C20.7357 7.64921 21.1638 8.1821 21.3718 8.81124C21.5095 9.22774 21.5022 9.65468 21.4444 10.0989C21.3883 10.5295 21.2724 11.0552 21.1319 11.692L20.3591 15.196C20.2651 15.6219 20.186 15.9807 20.0986 16.273C20.0068 16.5803 19.8924 16.8633 19.7047 17.1244C19.4132 17.53 19.0168 17.8485 18.558 18.0458C18.2626 18.1728 17.9616 18.2236 17.6417 18.2471C17.3374 18.2695 16.97 18.2695 16.5339 18.2694H11.4898C11.025 18.2695 10.6345 18.2695 10.3123 18.2449C9.97433 18.2191 9.65658 18.1635 9.34796 18.0233C8.87034 17.8064 8.46472 17.4574 8.17896 17.0175C7.99431 16.7332 7.89187 16.4274 7.81596 16.097C7.74359 15.7821 7.68533 15.396 7.61597 14.9363L6.26211 5.96497C6.18752 5.47072 6.13732 5.14148 6.07928 4.88891C6.02335 4.6455 5.97145 4.52839 5.92028 4.44962C5.79039 4.24967 5.60602 4.09103 5.38892 3.99243C5.30339 3.95359 5.17985 3.91974 4.93082 3.90076ZM8.15025 8.42441L9.09504 14.685C9.16962 15.1793 9.21982 15.5085 9.27786 15.7611C9.33379 16.0045 9.38569 16.1216 9.43686 16.2004C9.56675 16.4003 9.75112 16.559 9.96823 16.6576C10.0537 16.6964 10.1773 16.7303 10.4263 16.7492C10.6847 16.7689 11.0178 16.7694 11.5176 16.7694H16.5075C16.977 16.7694 17.2889 16.769 17.5317 16.7511C17.7651 16.734 17.8826 16.7034 17.9654 16.6678C18.174 16.5781 18.3542 16.4333 18.4866 16.249C18.5393 16.1757 18.5944 16.0676 18.6615 15.8434C18.7312 15.6102 18.7988 15.3057 18.9 14.8471L19.6598 11.4021C19.8094 10.7237 19.9104 10.2627 19.9569 9.90522C20.0027 9.55389 19.9825 9.3874 19.9476 9.28206C19.8531 8.99609 19.6585 8.75387 19.3996 8.59995C19.3042 8.54325 19.146 8.48766 18.793 8.45665C18.434 8.42511 17.962 8.42441 17.2673 8.42441H8.15025ZM16.4887 10.8171C16.7816 11.11 16.7816 11.5849 16.4887 11.8778L14.2664 14.1C14.1258 14.2406 13.935 14.3197 13.7361 14.3197C13.5372 14.3197 13.3464 14.2406 13.2058 14.1L12.0947 12.9889C11.8018 12.696 11.8018 12.2211 12.0947 11.9282C12.3876 11.6353 12.8624 11.6353 13.1553 11.9282L13.7361 12.509L15.428 10.8171C15.7209 10.5242 16.1958 10.5242 16.4887 10.8171ZM16.4785 20.1944C16.4785 19.7802 16.8143 19.4444 17.2285 19.4444H17.2406C17.6548 19.4444 17.9906 19.7802 17.9906 20.1944C17.9906 20.6086 17.6548 20.9444 17.2406 20.9444H17.2285C16.8143 20.9444 16.4785 20.6086 16.4785 20.1944ZM9.99204 20.1944C9.99204 19.7802 10.3278 19.4444 10.742 19.4444H10.7542C11.1684 19.4444 11.5042 19.7802 11.5042 20.1944C11.5042 20.6087 11.1684 20.9444 10.7542 20.9444H10.742C10.3278 20.9444 9.99204 20.6087 9.99204 20.1944Z" fill="#111111"/>
</svg>
