<svg width="24" height="24" viewBox="0 0 24 24" fill="none" xmlns="http://www.w3.org/2000/svg">
<g clip-path="url(#clip0_8_59)">
<path d="M19.2 14.4H16.8V9.6H19.2C21.8508 9.6 24 7.4508 24 4.8C24 2.1492 21.8508 0 19.2 0C16.5489 0 14.4 2.1492 14.4 4.8V7.2H9.6V4.8C9.6 2.1492 7.4508 0 4.8 0C2.1492 0 0 2.1492 0 4.8C0 7.4508 2.1492 9.6 4.8 9.6H7.2V14.4H4.8C2.1492 14.4 0 16.5492 0 19.2C0 21.8508 2.1492 24 4.8 24C7.4511 24 9.6 21.8508 9.6 19.2V16.8H14.4V19.194C14.4 19.1964 14.3997 19.1982 14.3997 19.2C14.3997 21.8508 16.5489 24 19.1997 24C21.8505 24 23.9997 21.8508 23.9997 19.2C23.9997 16.5492 21.8508 14.4006 19.2 14.4ZM19.2 2.4C20.5254 2.4 21.6 3.4746 21.6 4.8C21.6 6.1254 20.5254 7.2 19.2 7.2H16.8V4.8C16.8 3.4746 17.8746 2.4 19.2 2.4ZM2.4 4.8C2.4 3.4746 3.4746 2.4 4.8 2.4C6.1254 2.4 7.2 3.4746 7.2 4.8V7.2H4.8C3.4746 7.2 2.4 6.1251 2.4 4.8ZM4.8 21.6C3.4746 21.6 2.4 20.5254 2.4 19.2C2.4 17.8746 3.4746 16.8 4.8 16.8H7.2V19.2C7.2 20.5254 6.1254 21.6 4.8 21.6ZM9.6 14.4V9.6H14.4V14.4H9.6ZM19.2 21.6C17.8746 21.6 16.8 20.5254 16.8 19.2V16.8H19.1997C20.5251 16.8 21.5997 17.8746 21.5997 19.2C21.5997 20.5254 20.5254 21.6 19.2 21.6Z" fill="#111111"/>
</g>
<defs>
<clipPath id="clip0_8_59">
<rect width="24" height="24" fill="white"/>
</clipPath>
</defs>
</svg>
