<svg width="24" height="24" viewBox="0 0 24 24" fill="none" xmlns="http://www.w3.org/2000/svg">
<path fill-rule="evenodd" clip-rule="evenodd" d="M11.9694 2H12.0306C13.52 2 14.6793 1.99999 15.6122 2.06889C16.5589 2.13881 17.3317 2.28267 18.0358 2.60167C19.5274 3.27752 20.7225 4.47259 21.3983 5.96423C21.7173 6.66828 21.8612 7.44105 21.9311 8.38781C22 9.32065 22 10.48 22 11.9694V12.0306C22 13.52 22 14.6793 21.9311 15.6122C21.8612 16.5589 21.7173 17.3317 21.3983 18.0358C20.7225 19.5274 19.5274 20.7225 18.0358 21.3983C17.3317 21.7173 16.5589 21.8612 15.6122 21.9311C14.6793 22 13.52 22 12.0306 22H11.9694C10.48 22 9.32065 22 8.38781 21.9311C7.44105 21.8612 6.66827 21.7173 5.96423 21.3983C4.47259 20.7225 3.27752 19.5274 2.60167 18.0358C2.28267 17.3317 2.13881 16.5589 2.06889 15.6122C1.99999 14.6793 2 13.52 2 12.0306V11.9694C2 10.48 1.99999 9.32066 2.06889 8.38781C2.13881 7.44105 2.28267 6.66827 2.60167 5.96423C3.27752 4.47259 4.47259 3.27752 5.96423 2.60167C6.66828 2.28267 7.44105 2.13881 8.38781 2.06889C9.32066 1.99999 10.48 2 11.9694 2ZM8.49829 3.56481C7.63466 3.6286 7.05961 3.75215 6.58329 3.96796C5.42313 4.49363 4.49363 5.42313 3.96797 6.58329C3.77352 7.01243 3.65397 7.52173 3.58556 8.25H11.25V3.50036C10.1012 3.50205 9.21984 3.51152 8.49829 3.56481ZM12.75 3.50036V8.25H20.4144C20.346 7.52173 20.2265 7.01244 20.032 6.58329C19.5064 5.42313 18.5769 4.49363 17.4167 3.96797C16.9404 3.75215 16.3653 3.6286 15.5017 3.56482C14.7802 3.51153 13.8988 3.50205 12.75 3.50036ZM20.4875 9.75H12.75V14.25H20.4875C20.4998 13.6156 20.5 12.8776 20.5 12C20.5 11.1224 20.4998 10.3844 20.4875 9.75ZM20.4144 15.75H12.75V20.4996C13.8988 20.498 14.7802 20.4885 15.5017 20.4352C16.3653 20.3714 16.9404 20.2479 17.4167 20.032C18.5769 19.5064 19.5064 18.5769 20.032 17.4167C20.2265 16.9876 20.346 16.4783 20.4144 15.75ZM11.25 20.4996V15.75H3.58556C3.65397 16.4783 3.77352 16.9876 3.96796 17.4167C4.49363 18.5769 5.42313 19.5064 6.58329 20.032C7.05961 20.2479 7.63466 20.3714 8.49829 20.4352C9.21984 20.4885 10.1012 20.498 11.25 20.4996ZM3.51252 14.25H11.25V9.75H3.51252C3.50016 10.3844 3.5 11.1224 3.5 12C3.5 12.8776 3.50016 13.6156 3.51252 14.25Z" fill="#111111"/>
</svg>
