<svg width="95" height="21" viewBox="0 0 95 21" fill="none" xmlns="http://www.w3.org/2000/svg">
<mask id="mask0_414_3860" style="mask-type:luminance" maskUnits="userSpaceOnUse" x="0" y="0" width="95" height="21">
<path d="M94.5917 0.30542H0V20.3054H94.5917V0.30542Z" fill="white"/>
</mask>
<g mask="url(#mask0_414_3860)">
<path d="M0 0.83847C0.912407 0.632285 2.32419 0.511719 3.59771 0.511719C7.03965 0.511719 9.10657 1.64632 9.10657 4.5335C9.10657 6.30355 8.34818 7.47252 7.16158 8.10855L10.0341 12.7489C9.81013 12.9038 9.32825 12.9894 8.65678 12.9894C7.89839 12.9894 7.40018 12.9038 7.03849 12.7489L4.64663 8.72711H4.37535C3.79197 8.72711 3.01549 8.67527 2.60246 8.60654V12.7658C2.36152 12.9032 1.93099 12.9894 1.31144 12.9894C0.708807 12.9894 0.261354 12.9038 0.00350028 12.7658L0 0.83847ZM2.58204 2.83218V6.42412C3.07142 6.5049 3.56664 6.54521 4.06266 6.54469C5.5602 6.54469 6.47552 6.0135 6.47552 4.67387C6.47552 3.29872 5.51178 2.732 3.79197 2.732C3.38648 2.72944 2.98157 2.76297 2.58204 2.83218Z" fill="#F1545B"/>
<path d="M13.3594 9.44985C13.4627 10.6532 14.3232 11.2374 16.0278 11.2374C17.1298 11.2374 18.0935 10.9968 18.7113 10.7219C18.7627 11.3748 18.4873 12.2171 18.0918 12.6638C17.5236 12.9905 16.5598 13.2655 15.3721 13.2655C12.3595 13.2655 10.7587 11.5298 10.7587 8.7451C10.7587 5.87481 12.4803 4.01855 15.1831 4.01855C17.6963 4.01855 18.8496 5.56553 18.8496 7.83415C18.8479 8.38282 18.7609 8.92787 18.5917 9.44985H13.3594ZM16.5097 7.64428C16.6473 6.7508 16.3201 5.87422 15.081 5.87422C14.0134 5.87422 13.3594 6.56151 13.2906 7.64428H16.5097Z" fill="#F1545B"/>
<path d="M24.1869 11.0643C24.3066 10.3154 24.4734 9.57484 24.6863 8.8469L25.9942 4.41274C26.1838 4.34401 26.4761 4.25781 27.0274 4.25781C27.7333 4.25781 28.2152 4.39527 28.5249 4.60146L25.8052 12.7487C24.8928 13.0067 23.6187 13.0923 22.3965 13.0923L19.5735 4.60204C19.8833 4.39585 20.3652 4.2584 21.0903 4.2584C21.6066 4.2584 21.9654 4.34401 22.1235 4.41333L23.5178 8.84748C23.7441 9.57414 23.9224 10.3149 24.0516 11.0648L24.1869 11.0643Z" fill="#F1545B"/>
<path d="M31.7272 9.44985C31.8304 10.6532 32.6909 11.2374 34.3956 11.2374C35.4976 11.2374 36.4613 10.9968 37.0791 10.7219C37.1304 11.3748 36.8551 12.2171 36.4596 12.6638C35.8913 12.9905 34.9276 13.2655 33.7398 13.2655C30.7273 13.2655 29.1265 11.5298 29.1265 8.7451C29.1265 5.87481 30.848 4.01855 33.5508 4.01855C36.064 4.01855 37.2174 5.56553 37.2174 7.83415C37.216 8.3827 37.1294 8.92775 36.9607 9.44985H31.7272ZM34.8774 7.64428C35.0151 6.7508 34.6878 5.87422 33.4487 5.87422C32.3811 5.87422 31.7272 6.56151 31.6583 7.64428H34.8774Z" fill="#F1545B"/>
<path d="M41.6429 12.7833C41.4188 12.9038 41.0058 12.9895 40.4032 12.9895C39.8005 12.9895 39.3875 12.9038 39.1466 12.7833V4.58537C39.6133 4.32734 40.3518 4.18989 41.1779 4.18989L41.3156 5.5994H41.4533C41.8663 4.70593 42.7443 4.01807 44.3118 4.01807C45.6203 4.01807 47.1704 4.48402 47.1704 7.3182V12.7839C46.9464 12.9044 46.5333 12.9901 45.9307 12.9901C45.3281 12.9901 44.915 12.9044 44.6741 12.7839V7.76494C44.6741 6.87147 44.3643 6.30416 43.3487 6.30416C42.4538 6.30416 41.9544 6.7509 41.6446 7.28384L41.6429 12.7833Z" fill="#F1545B"/>
<path d="M54.9673 11.8895C54.5887 12.663 53.7795 13.2647 52.2645 13.2647C50.9227 13.2647 49.4059 12.7987 49.4059 9.94473V4.70272C49.9893 4.37597 50.8177 4.18726 51.9022 4.18726V9.51546C51.9022 10.4433 52.1939 10.9593 53.1932 10.9593C54.0024 10.9593 54.535 10.6157 54.846 10.2202V4.49886C55.0869 4.3783 55.4999 4.29268 56.1026 4.29268C56.7052 4.29268 57.1182 4.37888 57.3423 4.49886V12.6974C56.8948 12.9554 56.1889 13.0928 55.3973 13.0928L55.1056 11.8895H54.9673Z" fill="#F1545B"/>
<path d="M61.8185 9.44985C61.9217 10.6532 62.7822 11.2374 64.4869 11.2374C65.5889 11.2374 66.5526 10.9968 67.1704 10.7219C67.2218 11.3748 66.9464 12.2171 66.5509 12.6638C65.9827 12.9905 65.0189 13.2655 63.8311 13.2655C60.8186 13.2655 59.2178 11.5298 59.2178 8.7451C59.2178 5.87481 60.9393 4.01855 63.6421 4.01855C66.1553 4.01855 67.3087 5.56553 67.3087 7.83415C67.3069 8.38282 67.2194 8.92787 67.0502 9.44985H61.8185ZM64.9687 7.64428C65.1064 6.7508 64.7791 5.87422 63.54 5.87422C62.4725 5.87422 61.8185 6.56151 61.7496 7.64428H64.9687Z" fill="#F1545B"/>
<path d="M75.6423 2.59152C73.2148 2.59152 71.5452 3.82921 71.5452 6.81949C71.5452 9.80976 73.1979 10.9962 75.5215 10.9962C76.5139 10.9866 77.4951 10.789 78.4133 10.4138C78.4478 11.0498 78.138 12.1494 77.7249 12.6999C76.9846 13.061 75.9165 13.3184 74.7124 13.3184C71.0283 13.3184 68.8593 10.9467 68.8593 6.99364C68.8599 2.72897 71.39 0.30542 75.1085 0.30542C76.0897 0.30542 77.0879 0.480153 77.7249 0.855248C78.1211 1.42255 78.2932 2.43659 78.2068 3.1926C77.3808 2.7977 76.6235 2.59152 75.6423 2.59152Z" fill="#F1545B"/>
<path d="M84.5255 12.0272C84.1469 12.7844 83.3377 13.2649 82.1499 13.2649C80.6332 13.2649 79.327 12.5077 79.327 10.5152C79.327 8.41838 80.8438 7.61053 82.8389 7.61053C83.3692 7.60401 83.8977 7.67944 84.4053 7.83419V7.59364C84.4053 6.54524 83.889 6.16723 82.7526 6.16723C81.7877 6.16659 80.8385 6.41454 79.9979 6.88714C79.7913 6.21674 79.8771 5.15145 80.2732 4.58415C80.8933 4.2405 81.9603 4.01685 83.2344 4.01685C85.7132 4.01685 86.901 4.89051 86.901 7.43696V10.4103C86.901 10.9433 87.1419 11.0633 87.4844 11.0633C87.7457 11.0679 88.003 10.9962 88.2247 10.8571C88.2935 11.5444 88.087 12.3866 87.7772 12.8677C87.4155 13.1082 86.9337 13.2632 86.3485 13.2632C85.3504 13.2632 84.8317 12.8333 84.6614 12.0255L84.5255 12.0272ZM84.4566 9.48368C84.0943 9.3429 83.7087 9.27295 83.3202 9.27749C82.322 9.27749 81.8227 9.68986 81.8227 10.3434C81.8227 11.0138 82.322 11.2543 83.0104 11.2543C83.5611 11.2543 84.1124 11.0796 84.4566 10.6526V9.48368Z" fill="#F1545B"/>
<path d="M92.138 6.47941H94.4359C94.5398 6.27205 94.5917 5.83872 94.5917 5.40712C94.5917 4.97553 94.5398 4.54278 94.4359 4.33484H92.138V1.77441C91.1702 1.79189 90.2548 2.01671 89.6324 2.46578V4.3331H88.6476C88.423 4.88642 88.3023 5.73096 88.3023 6.47708H89.6329L89.5991 12.552C89.5991 13.2212 89.4824 14.0768 89.0992 14.3453C87.2749 15.6343 83.5646 15.0105 80.16 14.6569C75.269 14.149 71.0447 13.4816 70.3429 16.1835C69.9719 17.6111 70.4537 18.5232 70.9222 19.0375C71.8643 20.0702 73.527 20.3055 74.8466 20.3055C75.4667 20.3048 76.0863 20.2563 76.6994 20.1605C77.0115 20.1098 77.2904 19.9376 77.4753 19.6816C77.6602 19.4256 77.7361 19.1068 77.6853 18.7952C77.5803 18.1464 76.9648 17.6886 76.3185 17.8085C74.9621 18.0613 73.0474 18.624 72.313 17.8184C72.0644 17.5464 72.1076 16.8784 72.313 16.6716C72.859 15.8562 76.3739 16.1678 79.9127 16.6448C83.8213 17.0525 87.8682 17.6239 90.1662 16.4765C91.0657 16.0274 92.138 14.9819 92.138 12.552V6.47941Z" fill="#F1545B"/>
</g>
</svg>
