<svg width="20" height="21" viewBox="0 0 20 21" fill="none" xmlns="http://www.w3.org/2000/svg">
<path fill-rule="evenodd" clip-rule="evenodd" d="M9.99999 3.41666C6.63135 3.41666 3.90054 6.14746 3.90054 9.51607C3.90054 12.8847 6.63135 15.6155 9.99999 15.6155C13.3686 15.6155 16.0994 12.8847 16.0994 9.51607C16.0994 6.14746 13.3686 3.41666 9.99999 3.41666ZM2.65054 9.51607C2.65054 5.45711 5.94099 2.16666 9.99999 2.16666C14.0589 2.16666 17.3494 5.45711 17.3494 9.51607C17.3494 11.7552 16.3481 13.7604 14.7687 15.1084L16.8932 17.8231C17.106 18.0949 17.0581 18.4877 16.7862 18.7004C16.5144 18.9132 16.1216 18.8652 15.9089 18.5934L13.7517 15.8371C12.6535 16.4903 11.3706 16.8655 9.99999 16.8655C5.94099 16.8655 2.65054 13.5751 2.65054 9.51607Z" fill="#111111"/>
</svg>
