<svg width="24" height="25" viewBox="0 0 24 25" fill="none" xmlns="http://www.w3.org/2000/svg">
<path fill-rule="evenodd" clip-rule="evenodd" d="M12 2.5C12.4142 2.5 12.75 2.83579 12.75 3.25V5.68421C12.75 6.09842 12.4142 6.43421 12 6.43421C11.5858 6.43421 11.25 6.09842 11.25 5.68421V3.25C11.25 2.83579 11.5858 2.5 12 2.5ZM4.92868 5.42892C5.22157 5.13602 5.69645 5.13602 5.98934 5.42892L7.35704 6.79662C7.64993 7.08951 7.64993 7.56438 7.35704 7.85728C7.06415 8.15017 6.58927 8.15017 6.29638 7.85728L4.92868 6.48958C4.63579 6.19668 4.63579 5.72181 4.92868 5.42892ZM19.0704 5.42892C19.3633 5.72181 19.3633 6.19668 19.0704 6.48958L17.7027 7.85728C17.4098 8.15017 16.9349 8.15017 16.642 7.85728C16.3491 7.56438 16.3491 7.08951 16.642 6.79662L18.0097 5.42892C18.3026 5.13602 18.7775 5.13602 19.0704 5.42892ZM7.35526 12.5C7.35526 9.93478 9.43478 7.85526 12 7.85526C14.5652 7.85526 16.6447 9.93478 16.6447 12.5C16.6447 15.0652 14.5652 17.1447 12 17.1447C9.43478 17.1447 7.35526 15.0652 7.35526 12.5ZM12 9.35526C10.2632 9.35526 8.85526 10.7632 8.85526 12.5C8.85526 14.2368 10.2632 15.6447 12 15.6447C13.7368 15.6447 15.1447 14.2368 15.1447 12.5C15.1447 10.7632 13.7368 9.35526 12 9.35526ZM2 12.5C2 12.0858 2.33579 11.75 2.75 11.75H5.18421C5.59842 11.75 5.93421 12.0858 5.93421 12.5C5.93421 12.9142 5.59842 13.25 5.18421 13.25H2.75C2.33579 13.25 2 12.9142 2 12.5ZM18.0658 12.5C18.0658 12.0858 18.4016 11.75 18.8158 11.75H21.25C21.6642 11.75 22 12.0858 22 12.5C22 12.9142 21.6642 13.25 21.25 13.25H18.8158C18.4016 13.25 18.0658 12.9142 18.0658 12.5ZM16.6576 17.1571C16.9505 16.8642 17.4254 16.8642 17.7183 17.1571L19.0713 18.5102C19.3642 18.803 19.3642 19.2779 19.0713 19.5708C18.7784 19.8637 18.3035 19.8637 18.0106 19.5708L16.6576 18.2178C16.3647 17.9249 16.3647 17.45 16.6576 17.1571ZM7.34242 17.1574C7.63531 17.4503 7.63531 17.9251 7.34242 18.218L5.98939 19.571C5.6965 19.8639 5.22163 19.8639 4.92873 19.571C4.63584 19.2782 4.63584 18.8033 4.92873 18.5104L6.28176 17.1574C6.57465 16.8645 7.04953 16.8645 7.34242 17.1574ZM12 18.5658C12.4142 18.5658 12.75 18.9016 12.75 19.3158V21.75C12.75 22.1642 12.4142 22.5 12 22.5C11.5858 22.5 11.25 22.1642 11.25 21.75V19.3158C11.25 18.9016 11.5858 18.5658 12 18.5658Z" fill="#111111"/>
</svg>
