<svg width="24" height="24" viewBox="0 0 24 24" fill="none" xmlns="http://www.w3.org/2000/svg">
<path fill-rule="evenodd" clip-rule="evenodd" d="M12 3.5C7.30558 3.5 3.5 7.30558 3.5 12C3.5 16.6944 7.30558 20.5 12 20.5C16.6944 20.5 20.5 16.6944 20.5 12C20.5 7.30558 16.6944 3.5 12 3.5ZM2 12C2 6.47715 6.47715 2 12 2C17.5228 2 22 6.47715 22 12C22 17.5228 17.5228 22 12 22C6.47715 22 2 17.5228 2 12ZM16.0304 9.13633C16.3232 9.42923 16.3232 9.9041 16.0304 10.197L11.3637 14.8637C11.0708 15.1566 10.5959 15.1566 10.303 14.8637L7.96969 12.5303C7.6768 12.2374 7.6768 11.7626 7.96969 11.4697C8.26259 11.1768 8.73746 11.1768 9.03035 11.4697L10.8334 13.2727L14.9697 9.13633C15.2626 8.84344 15.7375 8.84344 16.0304 9.13633Z" fill="#111111"/>
</svg>
