<svg width="20" height="20" viewBox="0 0 20 20" fill="none" xmlns="http://www.w3.org/2000/svg">
<g id="Icons">
<path id="Vector" fill-rule="evenodd" clip-rule="evenodd" d="M9.86193 1.66675H10.1383C11.0484 1.66674 11.7697 1.66674 12.351 1.71424C12.9455 1.76281 13.4485 1.86415 13.9078 2.09818C14.6526 2.47768 15.2582 3.08323 15.6377 3.82804C15.8717 4.28735 15.973 4.79037 16.0216 5.38486C16.0691 5.96621 16.0691 6.68746 16.0691 7.59757V12.4026C16.0691 13.3127 16.0691 14.0339 16.0216 14.6153C15.973 15.2098 15.8717 15.7128 15.6377 16.1722C15.2582 16.9169 14.6526 17.5225 13.9078 17.902C13.4485 18.136 12.9455 18.2373 12.351 18.2859C11.7697 18.3334 11.0484 18.3334 10.1383 18.3334H9.86193C8.95177 18.3334 8.23055 18.3334 7.6492 18.2859C7.05471 18.2373 6.55168 18.136 6.09237 17.902C5.34757 17.5225 4.74202 16.9169 4.36252 16.1722C4.12849 15.7128 4.02715 15.2098 3.97857 14.6153C3.93107 14.0339 3.93108 13.3127 3.93109 12.4026V7.59758C3.93108 6.68747 3.93108 5.96622 3.97857 5.38486C4.02715 4.79037 4.12849 4.28735 4.36252 3.82803C4.74202 3.08323 5.34757 2.47768 6.09237 2.09818C6.55169 1.86415 7.05471 1.76281 7.6492 1.71424C8.23055 1.66674 8.95177 1.66674 9.86193 1.66675ZM7.75099 2.96009C7.2338 3.00234 6.91359 3.08266 6.65987 3.21194C6.15026 3.4716 5.73593 3.88592 5.47627 4.39552C5.347 4.64925 5.26668 4.96946 5.22442 5.48665C5.18157 6.01114 5.18109 6.68135 5.18109 7.62508V12.3751C5.18109 13.3188 5.18157 13.989 5.22442 14.5135C5.26668 15.0307 5.347 15.3509 5.47627 15.6047C5.73593 16.1142 6.15026 16.5286 6.65987 16.7882C6.91359 16.9175 7.2338 16.9978 7.75099 17.0401C8.27548 17.0829 8.94568 17.0834 9.88943 17.0834H10.1108C11.0545 17.0834 11.7247 17.0829 12.2492 17.0401C12.7664 16.9978 13.0866 16.9175 13.3403 16.7882C13.8499 16.5286 14.2643 16.1142 14.5239 15.6047C14.6532 15.3509 14.7335 15.0307 14.7758 14.5135C14.8186 13.989 14.8191 13.3188 14.8191 12.3751V7.62508C14.8191 6.68135 14.8186 6.01114 14.7758 5.48665C14.7335 4.96946 14.6532 4.64925 14.5239 4.39552C14.2643 3.88592 13.8499 3.4716 13.3403 3.21194C13.0866 3.08266 12.7664 3.00234 12.2492 2.96009C11.7247 2.91723 11.0545 2.91675 10.1108 2.91675H9.88943C8.94568 2.91675 8.27548 2.91723 7.75099 2.96009ZM8.21885 4.41154C8.21885 4.06636 8.49868 3.78654 8.84385 3.78654H11.1563C11.5015 3.78654 11.7813 4.06636 11.7813 4.41154C11.7813 4.75671 11.5015 5.03654 11.1563 5.03654H8.84385C8.49868 5.03654 8.21885 4.75671 8.21885 4.41154ZM10.0001 14.8672C10.3453 14.8672 10.6251 15.1471 10.6251 15.4922V15.5163C10.6251 15.8615 10.3453 16.1413 10.0001 16.1413C9.65493 16.1413 9.3751 15.8615 9.3751 15.5163V15.4922C9.3751 15.1471 9.65493 14.8672 10.0001 14.8672Z" fill="#989898"/>
</g>
</svg>
